<?xml version="1.0" standalone="no"?>
<!DOCTYPE svg PUBLIC "-//W3C//DTD SVG 20010904//EN"
 "http://www.w3.org/TR/2001/REC-SVG-20010904/DTD/svg10.dtd">
<svg version="1.0" xmlns="http://www.w3.org/2000/svg"
 width="512.000000pt" height="512.000000pt" viewBox="0 0 512.000000 512.000000"
 preserveAspectRatio="xMidYMid meet">
<metadata>
Created by potrace 1.14, written by Peter Selinger 2001-2017
</metadata>
<g transform="translate(0.000000,512.000000) scale(0.100000,-0.100000)"
fill="#000000" stroke="none">
<path d="M1440 4758 c-42 -5 -60 -13 -77 -33 -22 -25 -23 -34 -23 -190 0 -90
4 -175 10 -189 18 -48 53 -56 238 -56 167 0 168 0 213 28 82 53 141 59 240 27
101 -34 177 -99 220 -189 26 -55 31 -80 43 -217 32 -361 22 -1173 -19 -1454
-7 -52 -24 -207 -30 -285 -4 -41 -8 -86 -11 -100 -19 -123 -26 -741 -9 -920
15 -168 11 -442 -10 -560 -2 -14 -7 -43 -10 -66 -3 -22 -9 -54 -14 -70 -4 -16
-7 -47 -7 -69 1 -36 4 -41 32 -50 18 -6 157 -10 334 -10 297 0 302 1 319 22
15 18 17 31 10 80 -11 75 -24 192 -34 308 -9 91 -7 269 4 335 9 58 17 134 27
255 27 341 16 1024 -21 1261 -2 11 -6 52 -10 90 -3 38 -8 87 -10 109 -12 126
-18 338 -18 630 1 421 7 545 34 648 31 121 31 120 36 150 7 39 67 97 101 98
54 2 78 -4 152 -37 77 -36 189 -106 250 -159 50 -42 167 -162 222 -227 44 -52
51 -56 85 -53 37 3 73 33 73 60 0 29 -41 169 -65 222 -138 302 -490 547 -860
599 -109 15 -192 19 -355 18 -187 -1 -265 -13 -325 -50 -35 -22 -183 -47 -241
-40 -60 6 -82 16 -134 57 -34 28 -39 29 -171 31 -74 2 -160 0 -189 -4z"/>
</g>
</svg>
